<svg width="40" height="40" viewBox="0 0 40 40" fill="none" xmlns="http://www.w3.org/2000/svg">
<rect width="40" height="40" rx="20" fill="#FB9835"/>
<path d="M10.9091 11C10.407 11 10 11.4029 10 11.9V25.4C10 25.8971 10.407 26.3 10.9091 26.3H17.2727C18.2769 26.3 19.0909 27.1059 19.0909 28.1C19.0909 28.5971 19.4979 29 20 29C20.5021 29 20.9091 28.5971 20.9091 28.1C20.9091 27.1059 21.7231 26.3 22.7273 26.3H29.0909C29.593 26.3 30 25.8971 30 25.4V11.9C30 11.4029 29.593 11 29.0909 11H23.6364C22.1495 11 20.8293 11.7068 20 12.7996C19.1707 11.7068 17.8505 11 16.3636 11H10.9091Z" fill="white"/>
</svg>
