<svg width="40" height="40" viewBox="0 0 40 40" fill="none" xmlns="http://www.w3.org/2000/svg">
<rect width="40" height="40" rx="20" fill="#FB9835"/>
<path fill-rule="evenodd" clip-rule="evenodd" d="M32.326 26.2149L28.6043 26.2138C28.5547 26.2127 28.5039 26.2083 28.4542 26.1962C28.0919 26.1138 27.8655 25.7545 27.9483 25.394L29.1035 20.3656C29.1543 20.0447 29.4337 19.7996 29.7694 19.7996H29.7904V17.8315L26.9234 19.1216V24.1017C26.9223 24.3566 26.7754 24.6006 26.5269 24.7116L19.3454 27.9411C19.1753 28.0169 18.9754 28.0224 18.7921 27.9411L11.647 24.7279C11.393 24.6312 11.213 24.3873 11.213 24.1004V19.1204L7.39635 17.4039C7.25168 17.3391 7.1291 17.2237 7.05953 17.0687C6.90713 16.7314 7.05732 16.3358 7.39635 16.1831L18.7923 11.0589C18.9624 10.9831 19.1623 10.9776 19.3456 11.0589L30.7051 16.1676C30.9591 16.2643 31.1392 16.5082 31.1392 16.7951V19.8006H31.1602C31.4672 19.8017 31.7444 20.0116 31.8161 20.3215L32.9713 25.3488C32.9901 25.4104 33 25.4752 33 25.5433C33 25.9136 32.6985 26.2136 32.3263 26.2136L32.326 26.2149ZM12.5614 19.7292V23.6721L19.0695 26.5983L25.5776 23.6721V19.7292L19.3457 22.5314C19.1756 22.6072 18.9757 22.6127 18.7924 22.5314L12.5605 19.7292H12.5614Z" fill="white"/>
</svg>
