<svg width="52" height="53" viewBox="0 0 52 53" fill="none" xmlns="http://www.w3.org/2000/svg">
<path d="M20.1719 45.3293C19.504 45.3293 18.8435 45.0758 18.3365 44.5688L13.1399 39.3699C12.1235 38.3535 12.1235 36.7107 13.1399 35.6943C14.1563 34.6779 15.7967 34.6779 16.8131 35.6943L22.0097 40.8933C23.0261 41.9096 23.0261 43.5524 22.0097 44.5688C21.5027 45.0782 20.8421 45.3293 20.1743 45.3293H20.1719Z" fill="#202020"/>
<path d="M27.523 37.9733C26.8552 37.9733 26.1946 37.7174 25.6876 37.2128L20.4837 32.0139C19.4673 30.9975 19.4673 29.3547 20.4837 28.3383C21.5001 27.3219 23.1478 27.3219 24.1642 28.3383L29.3608 33.5372C30.3772 34.5536 30.3772 36.1964 29.3608 37.2128C28.8538 37.7198 28.1933 37.9733 27.5254 37.9733H27.523Z" fill="#202020"/>
<path d="M34.8773 30.6215C34.2095 30.6215 33.5392 30.3656 33.0419 29.8586L27.838 24.6597C26.8216 23.6433 26.8216 22.0005 27.838 20.9841C28.8544 19.9677 30.5021 19.9677 31.5185 20.9841L36.7151 26.183C37.7315 27.1994 37.7315 28.8422 36.7151 29.8586C36.2081 30.3656 35.5379 30.6215 34.8797 30.6215H34.8773Z" fill="#202020"/>
<path d="M42.231 23.2682C41.5631 23.2682 40.9026 23.0147 40.3956 22.5077L35.1917 17.3088C34.1753 16.2924 34.1753 14.6496 35.1917 13.6332C36.2081 12.6169 37.8558 12.6169 38.8722 13.6332L44.0688 18.8322C45.0852 19.8486 45.0852 21.4913 44.0688 22.5077C43.5618 23.0147 42.9013 23.2682 42.2334 23.2682H42.231Z" fill="#202020"/>
<path d="M49.3968 52.4975H2.60296C1.54998 52.4975 0.59697 51.8663 0.197183 50.8937C-0.204994 49.9212 0.0192474 48.8024 0.767542 48.059L47.5614 1.26372C48.3024 0.517886 49.4236 0.293631 50.3962 0.700685C51.3687 1.10041 52 2.05345 52 3.10397V49.8993C52 51.3374 50.8325 52.5 49.3968 52.5L49.3968 52.4975ZM8.87899 47.2962H46.7936V9.37746L8.87899 47.2962Z" fill="#202020"/>
</svg>
