<svg width="50" height="39" viewBox="0 0 50 39" fill="none" xmlns="http://www.w3.org/2000/svg">
<path d="M9.375 0H40.625C45.7947 0 50 4.03711 50 9V21C50 25.9629 45.7947 30 40.625 30H37.5V36C37.5 37.1367 36.8317 38.1738 35.7727 38.6836C35.3302 38.8945 34.8511 39 34.375 39C33.7112 39 33.0521 38.7979 32.4997 38.3994L20.8328 30H9.375C4.20532 30 0 25.9629 0 21V9C0 4.03711 4.20532 0 9.375 0ZM28.6869 21.3486C28.0247 21.8789 27.9346 22.8252 28.487 23.4609C28.7968 23.8154 29.2408 24 29.6894 24C30.0419 24 30.3959 23.8857 30.6889 23.6514L40.0639 16.1514C40.4194 15.8672 40.6254 15.4453 40.6254 15C40.6254 14.5547 40.4194 14.1328 40.0639 13.8486L30.6889 6.34863C30.022 5.81543 29.0409 5.90625 28.487 6.53906C27.9346 7.1748 28.0247 8.12109 28.6869 8.65137L36.6215 15L28.6869 21.3486ZM9.93652 16.151L19.3115 23.651C19.6045 23.8854 19.9585 23.9996 20.311 23.9996C20.7596 23.9996 21.2036 23.8151 21.5134 23.4606C22.0657 22.8248 21.9757 21.8785 21.3135 21.3483L13.3789 14.9996L21.3135 8.651C21.9757 8.12073 22.0657 7.17444 21.5134 6.5387C20.9595 5.90588 19.9783 5.81506 19.3115 6.34827L9.93652 13.8483C9.58099 14.1324 9.375 14.5543 9.375 14.9996C9.375 15.4449 9.58099 15.8668 9.93652 16.151Z" fill="#202020"/>
</svg>
