<svg width="40" height="40" viewBox="0 0 40 40" fill="none" xmlns="http://www.w3.org/2000/svg">
<rect width="40" height="40" rx="20" fill="#FB9835"/>
<path d="M13.8889 31V28.5556H18.7778V24.7667C17.7796 24.5426 16.8886 24.1201 16.1048 23.4992C15.3209 22.8783 14.7453 22.099 14.3778 21.1611C12.85 20.9778 11.572 20.3109 10.5437 19.1603C9.51537 18.0098 9.00081 16.6601 9 15.1111V13.8889C9 13.2167 9.23956 12.6414 9.71867 12.1631C10.1978 11.6848 10.773 11.4453 11.4444 11.4444H13.8889V9H26.1111V11.4444H28.5556C29.2278 11.4444 29.8034 11.684 30.2826 12.1631C30.7617 12.6422 31.0008 13.2175 31 13.8889V15.1111C31 16.6593 30.4854 18.009 29.4563 19.1603C28.4272 20.3117 27.1492 20.9786 25.6222 21.1611C25.2556 22.0981 24.6803 22.8775 23.8964 23.4992C23.1126 24.1209 22.2212 24.5434 21.2222 24.7667V28.5556H26.1111V31H13.8889ZM13.8889 18.5333V13.8889H11.4444V15.1111C11.4444 15.8852 11.6685 16.5831 12.1167 17.2048C12.5648 17.8265 13.1556 18.2693 13.8889 18.5333ZM26.1111 18.5333C26.8444 18.2685 27.4352 17.8253 27.8833 17.2036C28.3315 16.5819 28.5556 15.8844 28.5556 15.1111V13.8889H26.1111V18.5333Z" fill="white"/>
</svg>
