<svg width="57" height="70" viewBox="0 0 57 70" fill="none" xmlns="http://www.w3.org/2000/svg">
<path d="M29.8168 11.8998C24.7671 11.5328 19.9594 13.2688 16.2757 16.7978C12.6454 20.2747 10.5639 25.1916 10.5639 30.2866C10.5639 34.4375 11.891 38.3715 14.4022 41.6594C16.2348 44.0584 18.016 46.7233 19.5657 49.3843V54.1352C19.5657 55.1622 20.3775 55.9982 21.3769 55.9982H35.5373C36.5358 55.9982 37.3476 55.1622 37.3476 54.1352V49.5403C38.9819 46.7573 40.9244 43.8334 42.583 41.6634C45.2255 38.2245 46.5847 33.9065 46.4077 29.5046C46.0393 20.2887 38.7515 12.5568 29.8168 11.8998ZM40.6386 40.0864C38.8565 42.4174 36.7662 45.5753 35.0464 48.5333L34.8714 48.8363V53.4512H22.0419V48.6863L21.8689 48.3863C20.2248 45.5324 18.3164 42.6624 16.3496 40.0884C14.1844 37.2515 13.0401 33.8635 13.0401 30.2886C13.0401 25.8976 14.8348 21.6597 17.9634 18.6637C21.1397 15.6228 25.2882 14.1228 29.6408 14.4428C37.3369 15.0078 43.6155 21.6707 43.9344 29.6106C44.088 33.4585 42.9495 37.0795 40.6386 40.0864ZM6.9929 35.9655C6.85096 35.9655 6.70512 35.9885 6.57193 36.0305L1.45902 37.7375C0.72888 37.9845 0.330268 38.7944 0.569434 39.5414C0.749295 40.1124 1.28888 40.5124 1.88096 40.5124C2.03846 40.5124 2.17943 40.4924 2.30582 40.4524L7.41874 38.7454C7.77651 38.6244 8.06624 38.3684 8.23346 38.0235C8.39679 37.6895 8.42207 37.3075 8.30637 36.9505C8.1236 36.3615 7.59665 35.9655 6.9929 35.9655ZM7.42068 21.6607L2.31846 19.9517C2.1736 19.9037 2.02582 19.8787 1.87902 19.8787C1.28305 19.8787 0.758045 20.2707 0.569434 20.8567C0.337073 21.6107 0.735685 22.4157 1.4561 22.6507L6.56026 24.3706C6.69346 24.4136 6.8354 24.4346 6.99582 24.4346C7.59762 24.4346 8.12651 24.0337 8.30929 23.4407C8.42304 23.0917 8.39582 22.7157 8.23248 22.3817C8.06429 22.0377 7.77651 21.7817 7.42068 21.6607ZM14.0998 12.2348C14.3497 12.5958 14.7658 12.8108 15.213 12.8108C15.5057 12.8108 15.7798 12.7158 16.0229 12.5308C16.3175 12.3148 16.5119 11.9898 16.5712 11.6188C16.6305 11.2418 16.5459 10.8648 16.3291 10.5589L13.1753 6.08091C12.9069 5.70792 12.4957 5.49292 12.0475 5.49292C11.7548 5.49292 11.4739 5.58892 11.2337 5.76792C10.9372 5.98891 10.7418 6.31891 10.6854 6.6959C10.629 7.0689 10.7185 7.44189 10.9362 7.74389L14.0998 12.2348ZM28.5014 8.37188C29.2655 8.37188 29.8858 7.73289 29.8858 6.9469V1.40898C29.8858 0.632992 29.2646 0 28.5014 0C27.7372 0 27.1159 0.631992 27.1159 1.40898V6.9469C27.1159 7.73289 27.7372 8.37188 28.5014 8.37188ZM40.9934 12.5408C41.2258 12.7178 41.5009 12.8108 41.7897 12.8108C42.2359 12.8108 42.654 12.5928 42.9068 12.2288L46.0704 7.73689C46.2852 7.43789 46.3718 7.0679 46.3163 6.6959C46.26 6.31891 46.0645 5.98792 45.767 5.76692C45.5269 5.58792 45.2469 5.49392 44.9552 5.49392C44.5129 5.49392 44.0948 5.70992 43.8333 6.07391L40.6736 10.5589C40.4577 10.8648 40.3722 11.2408 40.4315 11.6178C40.4908 11.9948 40.6862 12.3148 40.9934 12.5408ZM55.5476 37.7395L50.4366 36.0335C50.2986 35.9885 50.1557 35.9655 50.0127 35.9655C49.4158 35.9655 48.8723 36.3705 48.6915 36.9475C48.4533 37.6915 48.85 38.4974 49.5782 38.7444L54.6852 40.4504C54.8194 40.4924 54.9613 40.5134 55.1198 40.5134C55.7168 40.5134 56.2408 40.1264 56.4294 39.5474C56.6637 38.7944 56.268 37.9835 55.5476 37.7395ZM50.0059 24.4346C50.1644 24.4346 50.3063 24.4146 50.4308 24.3747L55.5437 22.6677C56.2651 22.4237 56.6647 21.6177 56.4352 20.8687C56.2466 20.2807 55.7168 19.8867 55.1159 19.8867C54.973 19.8867 54.833 19.9097 54.6979 19.9537L49.585 21.6607C49.2272 21.7817 48.9375 22.0377 48.7702 22.3817C48.6079 22.7157 48.5816 23.0977 48.6973 23.4527C48.8782 24.0407 49.4041 24.4346 50.0059 24.4346ZM36.037 58.4772H20.5573C19.8739 58.4772 19.3187 59.0472 19.3187 59.7511C19.3187 60.4541 19.8729 61.0251 20.5573 61.0251H36.038C36.7225 61.0251 37.2766 60.4551 37.2766 59.7511C37.2766 59.0472 36.7205 58.4772 36.037 58.4772ZM36.037 62.9351H20.5573C19.8739 62.9351 19.3187 63.5051 19.3187 64.2091C19.3187 64.9131 19.8729 65.4831 20.5573 65.4831H36.038C36.7225 65.4831 37.2766 64.9131 37.2766 64.2091C37.2766 63.5051 36.7205 62.9351 36.037 62.9351ZM32.8346 67.452H23.5469C22.8634 67.452 22.3083 68.022 22.3083 68.726C22.3083 69.43 22.8625 70 23.5459 70H32.8336C33.5171 70 34.0722 69.43 34.0722 68.726C34.0722 68.022 33.518 67.452 32.8346 67.452Z" fill="#FF9524"/>
</svg>
