<svg width="52" height="52" viewBox="0 0 52 52" fill="none" xmlns="http://www.w3.org/2000/svg">
<path fill-rule="evenodd" clip-rule="evenodd" d="M21.4536 0H2.16382C0.969218 0.00225385 0.00225037 0.969224 0 2.16383V21.4537C0.00225383 22.6483 0.969218 23.6153 2.16382 23.622H21.4536C22.6504 23.6198 23.6196 22.6506 23.6219 21.4537V2.16383C23.6151 0.969224 22.6482 0.00225039 21.4536 0ZM18.1109 13.7043H13.7044V18.1131V18.1108C13.7314 18.6338 13.5443 19.1432 13.186 19.5218C12.8276 19.9005 12.3294 20.1146 11.8088 20.1146C11.2859 20.1146 10.7877 19.9005 10.4294 19.5218C10.071 19.1432 9.8839 18.6337 9.9132 18.1108V13.7043H5.50443C4.4969 13.6479 3.71025 12.8162 3.71025 11.8086C3.71025 10.8011 4.4969 9.96714 5.50443 9.91301H9.9132V5.50421C9.96729 4.49668 10.8013 3.71002 11.8088 3.71002C12.8164 3.71002 13.6481 4.49668 13.7044 5.50421V9.91301H18.1132H18.111C18.6339 9.88371 19.1433 10.0708 19.5219 10.4292C19.9006 10.7876 20.1147 11.2857 20.1147 11.8086C20.1147 12.3293 19.9006 12.8274 19.5219 13.1858C19.1433 13.5442 18.6338 13.7313 18.1109 13.7043ZM49.8469 0H30.5462C29.3516 0.00225385 28.3846 0.969224 28.3779 2.16383V21.4537C28.3801 22.6506 29.3494 23.6198 30.5462 23.622H49.8359C51.0305 23.6153 51.9975 22.6483 51.9998 21.4537V2.16383C51.9975 0.969224 51.0305 0.00225039 49.8359 0H49.8469ZM46.4952 13.7043H33.8885C33.3656 13.7313 32.8562 13.5443 32.4776 13.1859C32.0989 12.8275 31.8848 12.3293 31.8848 11.8087C31.8848 11.2858 32.0989 10.7876 32.4776 10.4293C32.8562 10.0709 33.3656 9.88379 33.8885 9.91309H46.4952C47.5028 9.96719 48.2894 10.8012 48.2894 11.8087C48.2894 12.8163 47.5028 13.6479 46.4952 13.7043ZM21.4538 28.378H2.16405C0.969449 28.3847 0.00248122 29.3517 0.000230846 30.5463V49.8362C0.00248468 51.0308 0.969449 51.9978 2.16405 52H21.4538C22.6484 51.9977 23.6154 51.0308 23.6221 49.8362V30.5463C23.6199 29.3494 22.6506 28.3802 21.4538 28.378ZM11.8112 31.8401C12.6903 31.8401 13.4837 32.3698 13.8218 33.1835C14.1576 33.9949 13.9706 34.9303 13.3485 35.5524C12.7264 36.1745 11.791 36.3616 10.9795 36.0235C10.1658 35.6877 9.63615 34.8943 9.63615 34.0152C9.64516 32.8206 10.6166 31.8604 11.8112 31.8626L11.8112 31.8401ZM11.8112 48.4993V48.4971C10.9299 48.4993 10.1365 47.9719 9.79616 47.1582C9.45806 46.3468 9.64289 45.4091 10.265 44.787C10.8871 44.1626 11.8225 43.9756 12.6362 44.3114C13.4499 44.6495 13.9818 45.4429 13.9818 46.322C13.9818 46.899 13.7541 47.4535 13.3484 47.8637C12.9404 48.2717 12.3882 48.5016 11.8112 48.5039L11.8112 48.4993ZM18.1111 42.0869H5.50441C4.49688 42.0328 3.71023 41.1988 3.71023 40.1912C3.71023 39.1837 4.49688 38.352 5.50441 38.2956H18.1111C18.634 38.2686 19.1435 38.4556 19.5221 38.814C19.9008 39.1724 20.1149 39.6706 20.1149 40.1912C20.1149 40.7141 19.9007 41.2122 19.5221 41.5706C19.1435 41.929 18.634 42.1162 18.1111 42.0869ZM49.8471 28.3757L30.5464 28.3779C29.3496 28.3802 28.3804 29.3494 28.3781 30.5462V49.8361C28.3849 51.0307 29.3518 51.9977 30.5464 52H49.8362C51.0308 51.9977 51.9977 51.0307 52 49.8361V30.5462C51.9977 29.3516 51.0308 28.3847 49.8362 28.3779L49.8471 28.3757ZM45.9883 43.3107C46.6375 44.0636 46.5947 45.1906 45.8914 45.8916C45.1904 46.5949 44.0634 46.6377 43.3106 45.9885L40.1956 42.8735L37.0806 45.9885H37.0784C36.3391 46.7301 35.1399 46.7301 34.3984 45.9908C33.6568 45.2515 33.6568 44.0523 34.3961 43.3108L37.5111 40.1958L34.3961 37.0808V37.0785C33.6569 36.3392 33.6569 35.1401 34.3961 34.4008C35.1354 33.6615 36.3346 33.6615 37.0739 34.4008L40.1888 37.5158L43.3038 34.4008C44.0431 33.6615 45.2445 33.6592 45.986 34.3985C46.7253 35.1378 46.7276 36.337 45.9883 37.0785L42.8733 40.1935L45.9883 43.3107Z" fill="#202020"/>
</svg>
