<svg width="52" height="52" viewBox="0 0 52 52" fill="none" xmlns="http://www.w3.org/2000/svg">
<path d="M49.1068 2.94206C48.0764 1.95649 46.8577 1.18874 45.5237 0.684739C44.1896 0.180735 42.7676 -0.049175 41.3426 0.00875941C37.0333 0.00875941 31.7488 1.86528 25.9257 5.71755C20.084 1.86528 14.8553 0.00875941 10.5553 0.00875941C9.15459 -0.0474327 7.75702 0.180179 6.44666 0.677898C5.13629 1.17562 3.94021 1.93315 2.9304 2.90493C-1.61108 7.44411 -1.0167 15.9005 5.71658 26.1114C-0.933113 36.2108 -1.63895 44.5652 2.89325 49.0579C3.92361 50.0435 5.14226 50.8113 6.47631 51.3153C7.81037 51.8193 9.23242 52.0492 10.6574 51.9912C14.9667 51.9912 20.2512 50.1347 26.0743 46.2824C31.916 50.1347 37.1447 51.9912 41.4447 51.9912C42.8454 52.0474 44.243 51.8198 45.5533 51.3221C46.8637 50.8244 48.0598 50.0668 49.0696 49.0951C53.6111 44.5559 53.0167 36.0995 46.2834 25.8886C52.9331 15.7892 53.639 7.43483 49.1068 2.94206ZM5.56798 10.693C5.51321 9.99784 5.60021 9.2988 5.82371 8.63822C6.0472 7.97765 6.40254 7.3693 6.8682 6.85003C7.36834 6.39718 7.95598 6.05154 8.5949 5.83442C9.23382 5.6173 9.91047 5.5333 10.5831 5.58759C13.5179 5.58759 17.1678 6.90572 21.1613 9.30063C18.9956 11.0749 16.9247 12.9619 14.9574 14.9537C12.9612 16.9548 11.0672 19.0553 9.2829 21.2473C6.88678 17.3022 5.56798 13.6634 5.56798 10.693ZM25.9443 12.5495C28.4747 14.4959 30.8788 16.6011 33.1419 18.8524C35.3911 21.0661 37.4916 23.4259 39.4294 25.9165C37.4776 28.4417 35.3683 30.8414 33.1141 33.1012C30.9019 35.3457 28.544 37.4419 26.0557 39.3762C23.5253 37.4298 21.1212 35.3246 18.8581 33.0733C16.6089 30.8596 14.5085 28.4998 12.5706 26.0093C14.5224 23.484 16.6317 21.0843 18.8859 18.8246C21.0993 16.5928 23.4572 14.509 25.9443 12.5867V12.5495ZM10.6574 46.4217C9.96636 46.4737 9.27193 46.3853 8.61593 46.162C7.95994 45.9387 7.35595 45.5849 6.84034 45.1221C4.63926 42.8943 5.15934 37.6961 9.2829 30.8641C11.064 33.0322 12.9581 35.1051 14.9574 37.0741C16.9656 39.0669 19.0734 40.9568 21.2728 42.7365C17.2885 45.1128 13.6386 46.4217 10.6574 46.4217ZM46.432 41.307C46.4868 42.0022 46.3998 42.7012 46.1763 43.3618C45.9528 44.0224 45.5975 44.6307 45.1318 45.15C44.6317 45.6028 44.044 45.9485 43.4051 46.1656C42.7662 46.3827 42.0895 46.4667 41.4169 46.4124C38.4821 46.4124 34.8322 45.0943 30.8387 42.6994C33.0044 40.925 35.0752 39.038 37.0426 37.0463C39.0389 35.0452 40.9328 32.9447 42.7171 30.7527C45.1132 34.6978 46.432 38.3366 46.432 41.307ZM42.7171 21.1359C40.9361 18.9677 39.0419 16.8948 37.0426 14.9259C35.0344 12.9331 32.9266 11.0432 30.7272 9.2635C34.6929 6.87787 38.3428 5.55046 41.324 5.55046C42.0151 5.49847 42.7095 5.58681 43.3655 5.81015C44.0215 6.03349 44.6255 6.38722 45.1411 6.85003C47.3608 9.10569 46.8407 14.3039 42.7171 21.1359Z" fill="#202020"/>
<path d="M26 28.7848C27.5388 28.7848 28.7862 27.538 28.7862 26C28.7862 24.462 27.5388 23.2152 26 23.2152C24.4612 23.2152 23.2138 24.462 23.2138 26C23.2138 27.538 24.4612 28.7848 26 28.7848Z" fill="#202020"/>
</svg>
