<svg width="12" height="13" viewBox="0 0 12 13" fill="none" xmlns="http://www.w3.org/2000/svg">
<path d="M4.80005 0.5C3.527 0.5 2.30609 1.00571 1.4059 1.90589C0.505718 2.80606 0 4.02696 0 5.3C0 6.57304 0.505718 7.79394 1.4059 8.69411C2.30609 9.59429 3.527 10.1 4.80005 10.1C6.0731 10.1 7.29402 9.59429 8.1942 8.69411C9.09439 7.79394 9.6001 6.57304 9.6001 5.3C9.6001 4.02696 9.09439 2.80606 8.1942 1.90589C7.29402 1.00571 6.0731 0.5 4.80005 0.5Z" fill="#999999"/>
<path fill-rule="evenodd" clip-rule="evenodd" d="M11.8244 12.3242C11.7119 12.4367 11.5593 12.4999 11.4002 12.4999C11.2411 12.4999 11.0885 12.4367 10.976 12.3242L8.87595 10.2242C8.76665 10.111 8.70618 9.95948 8.70754 9.80216C8.70891 9.64484 8.77201 9.49435 8.88326 9.38311C8.9945 9.27186 9.14499 9.20876 9.30231 9.20739C9.45963 9.20603 9.6112 9.2665 9.72436 9.3758L11.8244 11.4758C11.9369 11.5883 12.0001 11.7409 12.0001 11.9C12.0001 12.0591 11.9369 12.2117 11.8244 12.3242Z" fill="#999999"/>
</svg>
