<svg width="10" height="11" viewBox="0 0 10 11" fill="none" xmlns="http://www.w3.org/2000/svg">
<path d="M4.99975 8.87749L2.57605 10.4062C2.46898 10.4776 2.35705 10.5081 2.24024 10.498C2.12344 10.4878 2.02123 10.447 1.93363 10.3757C1.84602 10.3043 1.77789 10.2152 1.72922 10.1084C1.68055 10.0016 1.67082 9.88177 1.70002 9.74887L2.34244 6.85956L0.196159 4.91806C0.0988221 4.82633 0.0380837 4.72177 0.013944 4.60436C-0.0101956 4.48695 -0.00299269 4.3724 0.0355528 4.2607C0.0740984 4.149 0.132501 4.05727 0.21076 3.98553C0.289019 3.91378 0.39609 3.86791 0.531973 3.84794L3.36449 3.58805L4.45953 0.866897C4.5082 0.744598 4.58373 0.652874 4.68613 0.591724C4.78853 0.530575 4.89307 0.5 4.99975 0.5C5.10643 0.5 5.21097 0.530575 5.31337 0.591724C5.41577 0.652874 5.4913 0.744598 5.53997 0.866897L6.63502 3.58805L9.46753 3.84794C9.6038 3.86832 9.71087 3.91418 9.78874 3.98553C9.86661 4.05687 9.92501 4.14859 9.96395 4.2607C10.0029 4.37281 10.0103 4.48756 9.98614 4.60497C9.962 4.72238 9.90107 4.82674 9.80334 4.91806L7.65706 6.85956L8.29948 9.74887C8.32868 9.88136 8.31895 10.0012 8.27028 10.1084C8.22161 10.2156 8.15348 10.3047 8.06587 10.3757C7.97827 10.4466 7.87607 10.4874 7.75926 10.498C7.64246 10.5086 7.53052 10.478 7.42345 10.4062L4.99975 8.87749Z" fill="#FB9835"/>
</svg>
